<svg width="20" height="18" viewBox="0 0 20 18" fill="none" xmlns="http://www.w3.org/2000/svg">
<path d="M17.4286 1.12501H13.1429L12.8071 0.467584C12.736 0.327034 12.6265 0.208807 12.4908 0.126202C12.3552 0.0435979 12.1988 -0.000106452 12.0393 6.16384e-06H7.95714C7.79799 -0.000596081 7.64189 0.0429453 7.50672 0.125642C7.37154 0.208338 7.26277 0.326845 7.19286 0.467584L6.85714 1.12501H2.57143C2.41988 1.12501 2.27453 1.18427 2.16737 1.28976C2.0602 1.39525 2 1.53832 2 1.68751V2.81251C2 2.96169 2.0602 3.10476 2.16737 3.21025C2.27453 3.31574 2.41988 3.37501 2.57143 3.37501H17.4286C17.5801 3.37501 17.7255 3.31574 17.8326 3.21025C17.9398 3.10476 18 2.96169 18 2.81251V1.68751C18 1.53832 17.9398 1.39525 17.8326 1.28976C17.7255 1.18427 17.5801 1.12501 17.4286 1.12501V1.12501ZM3.9 16.418C3.92725 16.8464 4.11934 17.2485 4.43716 17.5424C4.75498 17.8363 5.17464 17.9999 5.61071 18H14.3893C14.8254 17.9999 15.245 17.8363 15.5628 17.5424C15.8807 17.2485 16.0727 16.8464 16.1 16.418L16.8571 4.5H3.14286L3.9 16.418Z" fill="black"/>
</svg>
