<svg width="453" height="83" viewBox="0 0 453 83" fill="none" xmlns="http://www.w3.org/2000/svg">
<path d="M81.456 49.352C81.456 46.04 81.936 43.136 82.896 40.64C83.904 38.144 85.224 36.08 86.856 34.448C88.488 32.768 90.36 31.52 92.472 30.704C94.584 29.84 96.744 29.408 98.952 29.408C104.136 29.408 108.168 31.016 111.048 34.232C113.976 37.448 115.44 42.248 115.44 48.632C115.44 49.112 115.416 49.664 115.368 50.288C115.368 50.864 115.344 51.392 115.296 51.872H90.456C90.696 54.896 91.752 57.248 93.624 58.928C95.544 60.56 98.304 61.376 101.904 61.376C104.016 61.376 105.936 61.184 107.664 60.8C109.44 60.416 110.832 60.008 111.84 59.576L112.992 66.704C112.512 66.944 111.84 67.208 110.976 67.496C110.16 67.736 109.2 67.952 108.096 68.144C107.04 68.384 105.888 68.576 104.64 68.72C103.392 68.864 102.12 68.936 100.824 68.936C97.512 68.936 94.632 68.456 92.184 67.496C89.736 66.488 87.72 65.12 86.136 63.392C84.552 61.616 83.376 59.552 82.608 57.2C81.84 54.8 81.456 52.184 81.456 49.352ZM106.728 45.464C106.728 44.264 106.56 43.136 106.224 42.08C105.888 40.976 105.384 40.04 104.712 39.272C104.088 38.456 103.296 37.832 102.336 37.4C101.424 36.92 100.32 36.68 99.024 36.68C97.68 36.68 96.504 36.944 95.496 37.472C94.488 37.952 93.624 38.6 92.904 39.416C92.232 40.232 91.704 41.168 91.32 42.224C90.936 43.28 90.672 44.36 90.528 45.464H106.728ZM137.925 61.88C140.613 61.88 142.653 61.736 144.045 61.448V51.8C143.565 51.656 142.869 51.512 141.957 51.368C141.045 51.224 140.037 51.152 138.933 51.152C137.973 51.152 136.989 51.224 135.981 51.368C135.021 51.512 134.133 51.776 133.317 52.16C132.549 52.544 131.925 53.096 131.445 53.816C130.965 54.488 130.725 55.352 130.725 56.408C130.725 58.472 131.373 59.912 132.669 60.728C133.965 61.496 135.717 61.88 137.925 61.88ZM137.205 29.408C140.085 29.408 142.509 29.768 144.477 30.488C146.445 31.208 148.005 32.216 149.157 33.512C150.357 34.808 151.197 36.392 151.677 38.264C152.205 40.088 152.469 42.104 152.469 44.312V67.136C151.125 67.424 149.085 67.76 146.349 68.144C143.661 68.576 140.613 68.792 137.205 68.792C134.949 68.792 132.885 68.576 131.013 68.144C129.141 67.712 127.533 67.016 126.189 66.056C124.893 65.096 123.861 63.848 123.093 62.312C122.373 60.776 122.013 58.88 122.013 56.624C122.013 54.464 122.421 52.64 123.237 51.152C124.101 49.664 125.253 48.464 126.693 47.552C128.133 46.592 129.789 45.92 131.661 45.536C133.581 45.104 135.573 44.888 137.637 44.888C138.597 44.888 139.605 44.96 140.661 45.104C141.717 45.2 142.845 45.392 144.045 45.68V44.24C144.045 43.232 143.925 42.272 143.685 41.36C143.445 40.448 143.013 39.656 142.389 38.984C141.813 38.264 141.021 37.712 140.013 37.328C139.053 36.944 137.829 36.752 136.341 36.752C134.325 36.752 132.477 36.896 130.797 37.184C129.117 37.472 127.749 37.808 126.693 38.192L125.613 31.136C126.717 30.752 128.325 30.368 130.437 29.984C132.549 29.6 134.805 29.408 137.205 29.408ZM172.57 61.736C174.874 61.736 176.554 61.472 177.61 60.944C178.666 60.368 179.194 59.408 179.194 58.064C179.194 56.816 178.618 55.784 177.466 54.968C176.362 54.152 174.514 53.264 171.922 52.304C170.338 51.728 168.874 51.128 167.53 50.504C166.234 49.832 165.106 49.064 164.146 48.2C163.186 47.336 162.418 46.304 161.842 45.104C161.314 43.856 161.05 42.344 161.05 40.568C161.05 37.112 162.322 34.4 164.866 32.432C167.41 30.416 170.866 29.408 175.234 29.408C177.442 29.408 179.554 29.624 181.57 30.056C183.586 30.44 185.098 30.824 186.106 31.208L184.522 38.264C183.562 37.832 182.338 37.448 180.85 37.112C179.362 36.728 177.634 36.536 175.666 36.536C173.89 36.536 172.45 36.848 171.346 37.472C170.242 38.048 169.69 38.96 169.69 40.208C169.69 40.832 169.786 41.384 169.978 41.864C170.218 42.344 170.602 42.8 171.13 43.232C171.658 43.616 172.354 44.024 173.218 44.456C174.082 44.84 175.138 45.248 176.386 45.68C178.45 46.448 180.202 47.216 181.642 47.984C183.082 48.704 184.258 49.544 185.17 50.504C186.13 51.416 186.826 52.472 187.258 53.672C187.69 54.872 187.906 56.312 187.906 57.992C187.906 61.592 186.562 64.328 183.874 66.2C181.234 68.024 177.442 68.936 172.498 68.936C169.186 68.936 166.522 68.648 164.506 68.072C162.49 67.544 161.074 67.112 160.258 66.776L161.77 59.504C163.066 60.032 164.602 60.536 166.378 61.016C168.202 61.496 170.266 61.736 172.57 61.736ZM226.788 30.344C222.9 44.648 218.388 57.608 213.252 69.224C212.292 71.384 211.308 73.232 210.3 74.768C209.292 76.304 208.164 77.576 206.916 78.584C205.668 79.592 204.276 80.312 202.74 80.744C201.204 81.224 199.428 81.464 197.412 81.464C196.068 81.464 194.724 81.32 193.38 81.032C192.084 80.744 191.1 80.432 190.428 80.096L192.012 73.112C193.74 73.784 195.444 74.12 197.124 74.12C199.38 74.12 201.132 73.568 202.38 72.464C203.676 71.408 204.804 69.752 205.764 67.496C203.028 62.216 200.388 56.456 197.844 50.216C195.348 43.976 193.116 37.352 191.148 30.344H200.436C200.916 32.36 201.492 34.544 202.164 36.896C202.884 39.248 203.652 41.648 204.468 44.096C205.284 46.496 206.148 48.896 207.06 51.296C207.972 53.696 208.884 55.928 209.796 57.992C211.332 53.72 212.772 49.184 214.116 44.384C215.46 39.536 216.684 34.856 217.788 30.344H226.788ZM275.169 49.352C275.169 45.464 274.281 42.44 272.505 40.28C270.777 38.12 267.969 37.04 264.081 37.04C263.265 37.04 262.401 37.088 261.489 37.184C260.625 37.232 259.761 37.376 258.897 37.616V59.144C259.665 59.672 260.673 60.176 261.921 60.656C263.217 61.088 264.585 61.304 266.025 61.304C269.193 61.304 271.497 60.224 272.937 58.064C274.425 55.904 275.169 53 275.169 49.352ZM284.097 49.208C284.097 52.088 283.713 54.728 282.945 57.128C282.225 59.528 281.169 61.592 279.777 63.32C278.385 65.048 276.633 66.392 274.521 67.352C272.457 68.312 270.105 68.792 267.465 68.792C265.689 68.792 264.057 68.576 262.569 68.144C261.081 67.712 259.857 67.232 258.897 66.704V81.32H250.185V31.568C251.961 31.088 254.145 30.632 256.737 30.2C259.329 29.768 262.065 29.552 264.945 29.552C267.921 29.552 270.585 30.008 272.937 30.92C275.289 31.832 277.281 33.152 278.913 34.88C280.593 36.56 281.865 38.624 282.729 41.072C283.641 43.472 284.097 46.184 284.097 49.208ZM306.179 68.72C303.587 68.672 301.427 68.384 299.699 67.856C298.019 67.328 296.675 66.584 295.667 65.624C294.659 64.616 293.939 63.392 293.507 61.952C293.123 60.464 292.931 58.784 292.931 56.912V13.568L301.643 12.128V55.256C301.643 56.312 301.715 57.2 301.859 57.92C302.051 58.64 302.363 59.264 302.795 59.792C303.227 60.272 303.803 60.656 304.523 60.944C305.291 61.184 306.251 61.376 307.403 61.52L306.179 68.72ZM327.698 61.88C330.386 61.88 332.426 61.736 333.818 61.448V51.8C333.338 51.656 332.642 51.512 331.73 51.368C330.818 51.224 329.81 51.152 328.706 51.152C327.746 51.152 326.762 51.224 325.754 51.368C324.794 51.512 323.906 51.776 323.09 52.16C322.322 52.544 321.698 53.096 321.218 53.816C320.738 54.488 320.498 55.352 320.498 56.408C320.498 58.472 321.146 59.912 322.442 60.728C323.738 61.496 325.49 61.88 327.698 61.88ZM326.978 29.408C329.858 29.408 332.282 29.768 334.25 30.488C336.218 31.208 337.778 32.216 338.93 33.512C340.13 34.808 340.97 36.392 341.45 38.264C341.978 40.088 342.242 42.104 342.242 44.312V67.136C340.898 67.424 338.858 67.76 336.122 68.144C333.434 68.576 330.386 68.792 326.978 68.792C324.722 68.792 322.658 68.576 320.786 68.144C318.914 67.712 317.306 67.016 315.962 66.056C314.666 65.096 313.634 63.848 312.866 62.312C312.146 60.776 311.786 58.88 311.786 56.624C311.786 54.464 312.194 52.64 313.01 51.152C313.874 49.664 315.026 48.464 316.466 47.552C317.906 46.592 319.562 45.92 321.434 45.536C323.354 45.104 325.346 44.888 327.41 44.888C328.37 44.888 329.378 44.96 330.434 45.104C331.49 45.2 332.618 45.392 333.818 45.68V44.24C333.818 43.232 333.698 42.272 333.458 41.36C333.218 40.448 332.786 39.656 332.162 38.984C331.586 38.264 330.794 37.712 329.786 37.328C328.826 36.944 327.602 36.752 326.114 36.752C324.098 36.752 322.25 36.896 320.57 37.184C318.89 37.472 317.522 37.808 316.466 38.192L315.386 31.136C316.49 30.752 318.098 30.368 320.21 29.984C322.322 29.6 324.578 29.408 326.978 29.408ZM350.823 49.208C350.823 46.424 351.255 43.832 352.119 41.432C352.983 38.984 354.207 36.872 355.791 35.096C357.423 33.32 359.391 31.928 361.695 30.92C363.999 29.912 366.591 29.408 369.471 29.408C373.023 29.408 376.383 30.056 379.551 31.352L377.679 38.48C376.671 38.048 375.519 37.688 374.223 37.4C372.975 37.112 371.631 36.968 370.191 36.968C366.783 36.968 364.191 38.048 362.415 40.208C360.639 42.32 359.751 45.32 359.751 49.208C359.751 52.952 360.591 55.928 362.271 58.136C363.951 60.296 366.783 61.376 370.767 61.376C372.255 61.376 373.719 61.232 375.159 60.944C376.599 60.656 377.847 60.296 378.903 59.864L380.127 67.064C379.167 67.544 377.703 67.976 375.735 68.36C373.815 68.744 371.823 68.936 369.759 68.936C366.543 68.936 363.735 68.456 361.335 67.496C358.983 66.488 357.015 65.12 355.431 63.392C353.895 61.616 352.743 59.528 351.975 57.128C351.207 54.68 350.823 52.04 350.823 49.208ZM400.12 61.88C402.808 61.88 404.848 61.736 406.24 61.448V51.8C405.76 51.656 405.064 51.512 404.152 51.368C403.24 51.224 402.232 51.152 401.128 51.152C400.168 51.152 399.184 51.224 398.176 51.368C397.216 51.512 396.328 51.776 395.512 52.16C394.744 52.544 394.12 53.096 393.64 53.816C393.16 54.488 392.92 55.352 392.92 56.408C392.92 58.472 393.568 59.912 394.864 60.728C396.16 61.496 397.912 61.88 400.12 61.88ZM399.4 29.408C402.28 29.408 404.704 29.768 406.672 30.488C408.64 31.208 410.2 32.216 411.352 33.512C412.552 34.808 413.392 36.392 413.872 38.264C414.4 40.088 414.664 42.104 414.664 44.312V67.136C413.32 67.424 411.28 67.76 408.544 68.144C405.856 68.576 402.808 68.792 399.4 68.792C397.144 68.792 395.08 68.576 393.208 68.144C391.336 67.712 389.728 67.016 388.384 66.056C387.088 65.096 386.056 63.848 385.288 62.312C384.568 60.776 384.208 58.88 384.208 56.624C384.208 54.464 384.616 52.64 385.432 51.152C386.296 49.664 387.448 48.464 388.888 47.552C390.328 46.592 391.984 45.92 393.856 45.536C395.776 45.104 397.768 44.888 399.832 44.888C400.792 44.888 401.8 44.96 402.856 45.104C403.912 45.2 405.04 45.392 406.24 45.68V44.24C406.24 43.232 406.12 42.272 405.88 41.36C405.64 40.448 405.208 39.656 404.584 38.984C404.008 38.264 403.216 37.712 402.208 37.328C401.248 36.944 400.024 36.752 398.536 36.752C396.52 36.752 394.672 36.896 392.992 37.184C391.312 37.472 389.944 37.808 388.888 38.192L387.808 31.136C388.912 30.752 390.52 30.368 392.632 29.984C394.744 29.6 397 29.408 399.4 29.408ZM434.765 61.736C437.069 61.736 438.749 61.472 439.805 60.944C440.861 60.368 441.389 59.408 441.389 58.064C441.389 56.816 440.813 55.784 439.661 54.968C438.557 54.152 436.709 53.264 434.117 52.304C432.533 51.728 431.069 51.128 429.725 50.504C428.429 49.832 427.301 49.064 426.341 48.2C425.381 47.336 424.613 46.304 424.037 45.104C423.509 43.856 423.245 42.344 423.245 40.568C423.245 37.112 424.517 34.4 427.061 32.432C429.605 30.416 433.061 29.408 437.429 29.408C439.637 29.408 441.749 29.624 443.765 30.056C445.781 30.44 447.293 30.824 448.301 31.208L446.717 38.264C445.757 37.832 444.533 37.448 443.045 37.112C441.557 36.728 439.829 36.536 437.861 36.536C436.085 36.536 434.645 36.848 433.541 37.472C432.437 38.048 431.885 38.96 431.885 40.208C431.885 40.832 431.981 41.384 432.173 41.864C432.413 42.344 432.797 42.8 433.325 43.232C433.853 43.616 434.549 44.024 435.413 44.456C436.277 44.84 437.333 45.248 438.581 45.68C440.645 46.448 442.397 47.216 443.837 47.984C445.277 48.704 446.453 49.544 447.365 50.504C448.325 51.416 449.021 52.472 449.453 53.672C449.885 54.872 450.101 56.312 450.101 57.992C450.101 61.592 448.757 64.328 446.069 66.2C443.429 68.024 439.637 68.936 434.693 68.936C431.381 68.936 428.717 68.648 426.701 68.072C424.685 67.544 423.269 67.112 422.453 66.776L423.965 59.504C425.261 60.032 426.797 60.536 428.573 61.016C430.397 61.496 432.461 61.736 434.765 61.736Z" fill="#00588E"/>
<path d="M50.9211 38.389C49.8158 45.1934 45.5526 51.0484 39.3947 54.0549C33.4737 56.9824 26.5263 56.9824 20.6053 54.0549C10.2632 48.833 6.00001 36.0945 11.2105 25.6505C16.4211 15.2066 29.1316 10.9341 39.5526 16.156C42 17.3429 44.1316 19.0044 45.9474 21.0615L44.9211 21.7736L30.9474 31.2681C28.8158 30.8725 26.8421 32.2967 26.4474 34.3538C26.0526 36.4901 27.4737 38.4681 29.5263 38.8637C31.6579 39.2593 33.6316 37.8352 34.0263 35.778C34.0263 35.6198 34.1053 35.3824 34.1053 35.2242L46.579 23.9099L48 22.644L49.1053 21.6154L54 17.2637H54.079L54.2368 17.1846C54 16.8681 53.6842 16.4725 53.4474 16.156C42.5526 3.57582 23.6053 2.15165 11.0526 13.0703C-1.49999 23.989 -2.8421 42.8989 7.97369 55.4791C8.44737 56.033 8.92106 56.5077 9.39474 57.0615L9.47369 57.1407L18.1579 65.6066L28.7368 75.8132C29.4474 76.5253 30.6316 76.5253 31.3421 75.8132L41.8421 65.5275L50.3684 57.2198C55.5789 52.3934 58.9737 45.9055 59.8421 38.8637L50.9211 38.389Z" fill="#00588E"/>
</svg>
