<svg width="296" height="54" viewBox="0 0 296 54" fill="none" xmlns="http://www.w3.org/2000/svg">
<path d="M53.2251 32.1085C53.2251 29.9537 53.5387 28.0644 54.166 26.4405C54.8247 24.8166 55.6872 23.4737 56.7536 22.4119C57.82 21.3189 59.0432 20.507 60.4232 19.9761C61.8032 19.414 63.2146 19.1329 64.6574 19.1329C68.0447 19.1329 70.6793 20.1791 72.5611 22.2714C74.4744 24.3638 75.431 27.4866 75.431 31.6401C75.431 31.9524 75.4153 32.3115 75.3839 32.7175C75.3839 33.0922 75.3682 33.4358 75.3369 33.748H59.1059C59.2627 35.7155 59.9527 37.2457 61.1759 38.3387C62.4305 39.4005 64.2339 39.9314 66.5863 39.9314C67.9663 39.9314 69.2209 39.8065 70.35 39.5566C71.5104 39.3068 72.42 39.0413 73.0787 38.7603L73.8314 43.3978C73.5178 43.5539 73.0787 43.7257 72.5141 43.9131C71.9809 44.0692 71.3536 44.2097 70.6322 44.3346C69.9422 44.4908 69.1895 44.6157 68.374 44.7094C67.5586 44.8031 66.7274 44.8499 65.8806 44.8499C63.7164 44.8499 61.8346 44.5376 60.235 43.9131C58.6354 43.2573 57.3181 42.3672 56.2831 41.243C55.2481 40.0875 54.4797 38.7447 53.9778 37.2145C53.476 35.653 53.2251 33.951 53.2251 32.1085ZM69.7384 29.579C69.7384 28.7983 69.6286 28.0644 69.409 27.3773C69.1895 26.6591 68.8602 26.0501 68.4211 25.5505C68.0133 25.0196 67.4958 24.6136 66.8685 24.3325C66.2726 24.0202 65.5512 23.8641 64.7044 23.8641C63.8262 23.8641 63.0578 24.0359 62.3991 24.3794C61.7405 24.6917 61.1759 25.1132 60.7055 25.6441C60.2664 26.175 59.9214 26.784 59.6704 27.471C59.4195 28.1581 59.247 28.8607 59.1529 29.579H69.7384ZM90.1232 40.2593C91.8796 40.2593 93.2125 40.1656 94.1221 39.9782V33.7012C93.8085 33.6075 93.3537 33.5138 92.7578 33.4201C92.1618 33.3265 91.5032 33.2796 90.7818 33.2796C90.1545 33.2796 89.5116 33.3265 88.8529 33.4201C88.2256 33.5138 87.6454 33.6856 87.1122 33.9354C86.6104 34.1852 86.2026 34.5444 85.889 35.0128C85.5754 35.45 85.4185 36.0121 85.4185 36.6992C85.4185 38.042 85.8419 38.9789 86.6888 39.5098C87.5356 40.0094 88.6804 40.2593 90.1232 40.2593ZM89.6527 19.1329C91.5346 19.1329 93.1185 19.3671 94.4044 19.8356C95.6903 20.304 96.7097 20.9598 97.4624 21.803C98.2465 22.6462 98.7954 23.6767 99.109 24.8946C99.454 26.0813 99.6265 27.393 99.6265 28.8295V43.6788C98.7483 43.8662 97.4153 44.0848 95.6276 44.3346C93.8712 44.6157 91.8796 44.7562 89.6527 44.7562C88.1786 44.7562 86.8299 44.6157 85.6067 44.3346C84.3835 44.0536 83.3328 43.6008 82.4546 42.9762C81.6078 42.3516 80.9334 41.5397 80.4316 40.5403C79.9612 39.541 79.7259 38.3075 79.7259 36.8397C79.7259 35.4344 79.9925 34.2477 80.5257 33.2796C81.0903 32.3115 81.843 31.5308 82.7839 30.9374C83.7249 30.3129 84.8069 29.8757 86.0301 29.6258C87.2847 29.3448 88.5863 29.2042 89.935 29.2042C90.5623 29.2042 91.2209 29.2511 91.9109 29.3448C92.6009 29.4072 93.338 29.5321 94.1221 29.7195V28.7826C94.1221 28.1268 94.0437 27.5023 93.8869 26.9089C93.73 26.3156 93.4478 25.8003 93.04 25.3631C92.6637 24.8946 92.1462 24.5355 91.4875 24.2857C90.8602 24.0359 90.0604 23.9109 89.0881 23.9109C87.7708 23.9109 86.5633 24.0046 85.4656 24.192C84.3678 24.3794 83.4739 24.598 82.7839 24.8478L82.0782 20.2572C82.7996 20.0073 83.8503 19.7575 85.2303 19.5077C86.6104 19.2578 88.0845 19.1329 89.6527 19.1329ZM112.761 40.1656C114.266 40.1656 115.364 39.9938 116.054 39.6503C116.744 39.2756 117.089 38.651 117.089 37.7766C117.089 36.9646 116.713 36.2932 115.96 35.7623C115.239 35.2314 114.031 34.6537 112.338 34.0291C111.303 33.6544 110.346 33.264 109.468 32.858C108.621 32.4208 107.884 31.9212 107.257 31.359C106.629 30.7969 106.127 30.1255 105.751 29.3448C105.406 28.5328 105.234 27.5491 105.234 26.3936C105.234 24.1452 106.065 22.3807 107.727 21.1003C109.389 19.7887 111.648 19.1329 114.502 19.1329C115.944 19.1329 117.324 19.2734 118.642 19.5545C119.959 19.8043 120.947 20.0542 121.606 20.304L120.571 24.8946C119.943 24.6136 119.144 24.3638 118.171 24.1452C117.199 23.8953 116.07 23.7704 114.784 23.7704C113.623 23.7704 112.683 23.9734 111.961 24.3794C111.24 24.7541 110.879 25.3475 110.879 26.1594C110.879 26.5654 110.942 26.9245 111.067 27.2368C111.224 27.5491 111.475 27.8458 111.82 28.1268C112.165 28.3767 112.62 28.6421 113.184 28.9232C113.749 29.173 114.439 29.4385 115.254 29.7195C116.603 30.2192 117.748 30.7188 118.689 31.2185C119.63 31.6869 120.398 32.2334 120.994 32.858C121.621 33.4514 122.076 34.1384 122.358 34.9191C122.641 35.6999 122.782 36.6367 122.782 37.7297C122.782 40.0719 121.904 41.8519 120.147 43.0699C118.422 44.2566 115.944 44.8499 112.714 44.8499C110.55 44.8499 108.809 44.6626 107.492 44.2878C106.174 43.9443 105.249 43.6632 104.716 43.4446L105.704 38.7134C106.551 39.057 107.554 39.3849 108.715 39.6972C109.907 40.0094 111.255 40.1656 112.761 40.1656ZM148.188 19.7419C145.648 29.0481 142.699 37.4799 139.343 45.0373C138.716 46.4426 138.073 47.6449 137.415 48.6442C136.756 49.6436 136.019 50.4711 135.203 51.1269C134.388 51.7827 133.478 52.2512 132.475 52.5322C131.471 52.8445 130.311 53.0007 128.993 53.0007C128.115 53.0007 127.237 52.907 126.359 52.7196C125.512 52.5322 124.869 52.3293 124.43 52.1106L125.465 47.5668C126.594 48.004 127.707 48.2226 128.805 48.2226C130.279 48.2226 131.424 47.8635 132.239 47.1452C133.086 46.4582 133.823 45.3808 134.451 43.9131C132.663 40.4779 130.938 36.7304 129.276 32.6706C127.645 28.6109 126.186 24.3013 124.9 19.7419H130.969C131.283 21.0535 131.659 22.4744 132.098 24.0046C132.569 25.5348 133.071 27.0963 133.604 28.689C134.137 30.2504 134.702 31.8119 135.297 33.3733C135.893 34.9347 136.489 36.3869 137.085 37.7297C138.089 34.9504 139.03 31.9992 139.908 28.8763C140.786 25.7222 141.586 22.6774 142.307 19.7419H148.188ZM179.801 32.1085C179.801 29.579 179.221 27.6116 178.061 26.2063C176.932 24.801 175.097 24.0983 172.556 24.0983C172.023 24.0983 171.458 24.1295 170.863 24.192C170.298 24.2232 169.733 24.3169 169.169 24.4731V38.4792C169.671 38.8227 170.329 39.1506 171.145 39.4629C171.992 39.744 172.886 39.8845 173.826 39.8845C175.897 39.8845 177.402 39.1819 178.343 37.7766C179.315 36.3713 179.801 34.4819 179.801 32.1085ZM185.635 32.0148C185.635 33.8886 185.384 35.6062 184.882 37.1676C184.412 38.7291 183.722 40.0719 182.812 41.1961C181.903 42.3204 180.758 43.1948 179.378 43.8194C178.029 44.4439 176.492 44.7562 174.767 44.7562C173.607 44.7562 172.541 44.6157 171.568 44.3346C170.596 44.0536 169.796 43.7413 169.169 43.3978V52.907H163.476V20.5382C164.637 20.2259 166.064 19.9293 167.758 19.6482C169.451 19.3671 171.239 19.2266 173.121 19.2266C175.065 19.2266 176.806 19.5233 178.343 20.1166C179.88 20.71 181.181 21.5688 182.248 22.693C183.346 23.786 184.177 25.1289 184.741 26.7215C185.337 28.283 185.635 30.0474 185.635 32.0148ZM200.064 44.7094C198.37 44.6782 196.959 44.4908 195.83 44.1473C194.732 43.8038 193.854 43.3197 193.195 42.6951C192.537 42.0393 192.066 41.243 191.784 40.3061C191.533 39.338 191.407 38.245 191.407 37.0271V8.82737L197.1 7.8905V35.9497C197.1 36.6367 197.147 37.2145 197.241 37.6829C197.367 38.1513 197.571 38.5573 197.853 38.9008C198.135 39.2131 198.511 39.4629 198.982 39.6503C199.484 39.8065 200.111 39.9314 200.864 40.0251L200.064 44.7094ZM214.125 40.2593C215.881 40.2593 217.214 40.1656 218.124 39.9782V33.7012C217.81 33.6075 217.355 33.5138 216.76 33.4201C216.164 33.3265 215.505 33.2796 214.784 33.2796C214.156 33.2796 213.513 33.3265 212.855 33.4201C212.227 33.5138 211.647 33.6856 211.114 33.9354C210.612 34.1852 210.204 34.5444 209.891 35.0128C209.577 35.45 209.42 36.0121 209.42 36.6992C209.42 38.042 209.844 38.9789 210.691 39.5098C211.537 40.0094 212.682 40.2593 214.125 40.2593ZM213.654 19.1329C215.536 19.1329 217.12 19.3671 218.406 19.8356C219.692 20.304 220.711 20.9598 221.464 21.803C222.248 22.6462 222.797 23.6767 223.111 24.8946C223.456 26.0813 223.628 27.393 223.628 28.8295V43.6788C222.75 43.8662 221.417 44.0848 219.629 44.3346C217.873 44.6157 215.881 44.7562 213.654 44.7562C212.18 44.7562 210.832 44.6157 209.609 44.3346C208.385 44.0536 207.335 43.6008 206.456 42.9762C205.61 42.3516 204.935 41.5397 204.433 40.5403C203.963 39.541 203.728 38.3075 203.728 36.8397C203.728 35.4344 203.994 34.2477 204.528 33.2796C205.092 32.3115 205.845 31.5308 206.786 30.9374C207.727 30.3129 208.809 29.8757 210.032 29.6258C211.286 29.3448 212.588 29.2042 213.937 29.2042C214.564 29.2042 215.223 29.2511 215.913 29.3448C216.603 29.4072 217.34 29.5321 218.124 29.7195V28.7826C218.124 28.1268 218.045 27.5023 217.889 26.9089C217.732 26.3156 217.45 25.8003 217.042 25.3631C216.665 24.8946 216.148 24.5355 215.489 24.2857C214.862 24.0359 214.062 23.9109 213.09 23.9109C211.773 23.9109 210.565 24.0046 209.467 24.192C208.37 24.3794 207.476 24.598 206.786 24.8478L206.08 20.2572C206.801 20.0073 207.852 19.7575 209.232 19.5077C210.612 19.2578 212.086 19.1329 213.654 19.1329ZM229.235 32.0148C229.235 30.2036 229.518 28.5172 230.082 26.9558C230.647 25.3631 231.446 23.989 232.482 22.8335C233.548 21.6781 234.834 20.7724 236.339 20.1166C237.845 19.4608 239.538 19.1329 241.42 19.1329C243.741 19.1329 245.937 19.5545 248.007 20.3977L246.784 25.0352C246.125 24.7541 245.372 24.5199 244.525 24.3325C243.71 24.1452 242.832 24.0515 241.891 24.0515C239.664 24.0515 237.97 24.7541 236.81 26.1594C235.649 27.5335 235.069 29.4853 235.069 32.0148C235.069 34.4507 235.618 36.3869 236.716 37.8234C237.813 39.2287 239.664 39.9314 242.267 39.9314C243.239 39.9314 244.196 39.8377 245.137 39.6503C246.078 39.4629 246.893 39.2287 247.583 38.9477L248.383 43.632C247.756 43.9443 246.799 44.2253 245.513 44.4752C244.259 44.725 242.957 44.8499 241.609 44.8499C239.507 44.8499 237.672 44.5376 236.104 43.9131C234.567 43.2573 233.281 42.3672 232.246 41.243C231.243 40.0875 230.49 38.7291 229.988 37.1676C229.486 35.5749 229.235 33.8573 229.235 32.0148ZM261.447 40.2593C263.203 40.2593 264.536 40.1656 265.446 39.9782V33.7012C265.132 33.6075 264.678 33.5138 264.082 33.4201C263.486 33.3265 262.827 33.2796 262.106 33.2796C261.478 33.2796 260.835 33.3265 260.177 33.4201C259.55 33.5138 258.969 33.6856 258.436 33.9354C257.934 34.1852 257.527 34.5444 257.213 35.0128C256.899 35.45 256.742 36.0121 256.742 36.6992C256.742 38.042 257.166 38.9789 258.013 39.5098C258.86 40.0094 260.004 40.2593 261.447 40.2593ZM260.977 19.1329C262.858 19.1329 264.442 19.3671 265.728 19.8356C267.014 20.304 268.034 20.9598 268.786 21.803C269.57 22.6462 270.119 23.6767 270.433 24.8946C270.778 26.0813 270.95 27.393 270.95 28.8295V43.6788C270.072 43.8662 268.739 44.0848 266.951 44.3346C265.195 44.6157 263.203 44.7562 260.977 44.7562C259.502 44.7562 258.154 44.6157 256.931 44.3346C255.707 44.0536 254.657 43.6008 253.779 42.9762C252.932 42.3516 252.257 41.5397 251.756 40.5403C251.285 39.541 251.05 38.3075 251.05 36.8397C251.05 35.4344 251.316 34.2477 251.85 33.2796C252.414 32.3115 253.167 31.5308 254.108 30.9374C255.049 30.3129 256.131 29.8757 257.354 29.6258C258.609 29.3448 259.91 29.2042 261.259 29.2042C261.886 29.2042 262.545 29.2511 263.235 29.3448C263.925 29.4072 264.662 29.5321 265.446 29.7195V28.7826C265.446 28.1268 265.368 27.5023 265.211 26.9089C265.054 26.3156 264.772 25.8003 264.364 25.3631C263.988 24.8946 263.47 24.5355 262.811 24.2857C262.184 24.0359 261.384 23.9109 260.412 23.9109C259.095 23.9109 257.887 24.0046 256.789 24.192C255.692 24.3794 254.798 24.598 254.108 24.8478L253.402 20.2572C254.124 20.0073 255.174 19.7575 256.554 19.5077C257.934 19.2578 259.408 19.1329 260.977 19.1329ZM284.085 40.1656C285.59 40.1656 286.688 39.9938 287.378 39.6503C288.068 39.2756 288.413 38.651 288.413 37.7766C288.413 36.9646 288.037 36.2932 287.284 35.7623C286.563 35.2314 285.355 34.6537 283.661 34.0291C282.626 33.6544 281.67 33.264 280.792 32.858C279.945 32.4208 279.208 31.9212 278.58 31.359C277.953 30.7969 277.451 30.1255 277.075 29.3448C276.73 28.5328 276.557 27.5491 276.557 26.3936C276.557 24.1452 277.389 22.3807 279.051 21.1003C280.713 19.7887 282.971 19.1329 285.826 19.1329C287.268 19.1329 288.648 19.2734 289.966 19.5545C291.283 19.8043 292.271 20.0542 292.93 20.304L291.895 24.8946C291.267 24.6136 290.467 24.3638 289.495 24.1452C288.523 23.8953 287.394 23.7704 286.108 23.7704C284.947 23.7704 284.006 23.9734 283.285 24.3794C282.564 24.7541 282.203 25.3475 282.203 26.1594C282.203 26.5654 282.266 26.9245 282.391 27.2368C282.548 27.5491 282.799 27.8458 283.144 28.1268C283.489 28.3767 283.944 28.6421 284.508 28.9232C285.073 29.173 285.763 29.4385 286.578 29.7195C287.927 30.2192 289.072 30.7188 290.013 31.2185C290.954 31.6869 291.722 32.2334 292.318 32.858C292.945 33.4514 293.4 34.1384 293.682 34.9191C293.965 35.6999 294.106 36.6367 294.106 37.7297C294.106 40.0719 293.228 41.8519 291.471 43.0699C289.746 44.2566 287.268 44.8499 284.038 44.8499C281.874 44.8499 280.133 44.6626 278.816 44.2878C277.498 43.9443 276.573 43.6632 276.04 43.4446L277.028 38.7134C277.875 39.057 278.878 39.3849 280.039 39.6972C281.231 40.0094 282.579 40.1656 284.085 40.1656Z" fill="#F1F1F1"/>
<path d="M33.273 24.976C32.5507 29.4029 29.7651 33.2122 25.7414 35.1682C21.8724 37.0729 17.3329 37.0729 13.464 35.1682C6.7062 31.7709 3.92054 23.4832 7.32519 16.6883C10.7299 9.89345 19.0352 7.11375 25.8445 10.5111C27.4437 11.2833 28.8365 12.3643 30.023 13.7027L29.3524 14.166L20.2217 20.3431C18.8289 20.0857 17.5392 21.0123 17.2813 22.3507C17.0233 23.7405 17.9519 25.0274 19.2931 25.2848C20.686 25.5422 21.9756 24.6157 22.2335 23.2773C22.2335 23.1743 22.2851 23.0199 22.2851 22.917L30.4357 15.5558L31.3642 14.7322L32.0865 14.063L35.2848 11.2318H35.3364L35.4395 11.1803C35.2848 10.9744 35.0784 10.717 34.9237 10.5111C27.8048 2.32644 15.4242 1.39987 7.22202 8.50357C-0.980118 15.6073 -1.85708 27.9101 5.21019 36.0948C5.5197 36.4552 5.82922 36.764 6.13873 37.1243L6.19032 37.1759L11.8648 42.6838L18.7773 49.3243C19.2416 49.7875 20.0154 49.7875 20.4796 49.3243L27.3405 42.6323L32.9118 37.2273C36.3165 34.0873 38.5347 29.8662 39.1021 25.2848L33.273 24.976Z" fill="#F1F1F1"/>
</svg>
